<svg width="140" height="98" viewBox="0 0 140 98" fill="none" xmlns="http://www.w3.org/2000/svg">
<path d="M66.4859 96.6709C66.4859 96.4651 65.31 96.3181 63.6637 96.3181C62.0174 96.3181 60.8415 96.1712 60.8415 95.9654C60.8415 95.7713 60.0477 95.6126 59.0776 95.6126C58.1075 95.6126 57.3137 95.4538 57.3137 95.2598C57.3137 95.0658 56.6787 94.907 55.9026 94.907C55.1265 94.907 54.4915 94.7483 54.4915 94.5543C54.4915 94.3602 53.8565 94.2015 53.0804 94.2015C52.3043 94.2015 51.6693 94.0427 51.6693 93.8487C51.6693 93.6547 51.193 93.4959 50.6109 93.4959C50.0288 93.4959 49.5526 93.3372 49.5526 93.1432C49.5526 92.9491 49.0763 92.7904 48.4943 92.7904C47.9122 92.7904 47.4359 92.6316 47.4359 92.4376C47.4359 92.2436 46.9597 92.0848 46.3776 92.0848C45.7955 92.0848 45.3193 91.9261 45.3193 91.732C45.3193 91.538 45.0018 91.3793 44.6137 91.3793C44.2257 91.3793 43.9082 91.2205 43.9082 91.0265C43.9082 90.8325 43.4319 90.6737 42.8498 90.6737C42.2677 90.6737 41.7915 90.515 41.7915 90.3209C41.7915 90.1269 41.474 89.9682 41.0859 89.9682C40.6979 89.9682 40.3804 89.8094 40.3804 89.6154C40.3804 89.4214 40.0629 89.2626 39.6748 89.2626C39.2868 89.2626 38.9693 89.1039 38.9693 88.9098C38.9693 88.7158 38.6868 88.557 38.3416 88.557C37.9964 88.557 37.4851 88.2395 37.2054 87.8515C36.9257 87.4634 36.4494 87.1459 36.147 87.1459C35.8447 87.1459 35.3684 86.8284 35.0887 86.4404C34.809 86.0523 34.3328 85.7348 34.0304 85.7348C33.728 85.7348 33.2517 85.4173 32.972 85.0293C32.6923 84.6412 32.2582 84.3237 32.0072 84.3237C31.412 84.3237 25.5637 78.4754 25.5637 77.8802C25.5637 77.6293 25.2462 77.1951 24.8582 76.9154C24.4701 76.6357 24.1526 76.1594 24.1526 75.857C24.1526 75.5547 23.8351 75.0784 23.447 74.7987C23.0327 74.5001 22.7415 73.8855 22.7415 73.3097C22.7415 72.7705 22.5827 72.3293 22.3887 72.3293C22.1947 72.3293 22.0359 72.0118 22.0359 71.6237C22.0359 71.2356 21.8772 70.9182 21.6832 70.9182C21.4891 70.9182 21.3304 70.2831 21.3304 69.507C21.3304 68.7309 21.1716 68.0959 20.9776 68.0959C20.7638 68.0959 20.6248 66.5672 20.6248 64.2154C20.6248 61.8635 20.7638 60.3348 20.9776 60.3348C21.1716 60.3348 21.3304 59.8586 21.3304 59.2765C21.3304 58.6944 21.4891 58.2182 21.6832 58.2182C21.8772 58.2182 22.0359 57.7419 22.0359 57.1598C22.0359 56.5777 22.1947 56.1015 22.3887 56.1015C22.5827 56.1015 22.7415 55.819 22.7415 55.4738C22.7415 55.1286 23.059 54.6173 23.447 54.3376C23.8351 54.0579 24.1526 53.6237 24.1526 53.3727C24.1526 52.7776 30.0009 46.9293 30.5961 46.9293C30.847 46.9293 31.2812 46.6118 31.5609 46.2237C31.8406 45.8356 32.3519 45.5182 32.6971 45.5182C33.0424 45.5182 33.3248 45.3594 33.3248 45.1654C33.3248 44.9713 33.6423 44.8126 34.0304 44.8126C34.4184 44.8126 34.7359 44.6539 34.7359 44.4598C34.7359 44.2658 35.0534 44.107 35.4415 44.107C35.8295 44.107 36.147 43.9483 36.147 43.7543C36.147 43.5602 36.4645 43.4015 36.8526 43.4015C37.2407 43.4015 37.5582 43.2427 37.5582 43.0487C37.5582 42.8547 38.0344 42.6959 38.6165 42.6959C39.1986 42.6959 39.6748 42.5372 39.6748 42.3432C39.6748 42.1491 40.1511 41.9904 40.7332 41.9904C41.3152 41.9904 41.7915 41.8316 41.7915 41.6376C41.7915 41.4436 42.2677 41.2848 42.8498 41.2848C43.4319 41.2848 43.9082 41.1261 43.9082 40.932C43.9082 40.738 44.5432 40.5793 45.3193 40.5793H46.7304V31.5582C46.7304 24.2104 46.8239 22.4437 47.2343 22.0332C47.6476 21.62 49.5526 21.5293 57.8177 21.5293H67.897V30.7015C67.897 39.6385 67.9151 39.8737 68.6026 39.8737C68.9907 39.8737 69.3082 40.0325 69.3082 40.2265C69.3082 40.4205 70.1019 40.5793 71.072 40.5793C72.0422 40.5793 72.8359 40.738 72.8359 40.932C72.8359 41.1261 73.3122 41.2848 73.8943 41.2848C74.4763 41.2848 74.9526 41.4436 74.9526 41.6376C74.9526 41.8316 75.2701 41.9904 75.6581 41.9904C76.3466 41.9904 76.3637 41.7552 76.3637 32.2638C76.3637 24.3044 76.4553 22.4456 76.8677 22.0332C77.2809 21.62 79.1859 21.5293 87.451 21.5293H97.5304V46.5765V71.6237H94.3554C92.4739 71.6237 91.1804 71.48 91.1804 71.2709C91.1804 71.0769 91.3391 70.9182 91.5331 70.9182C91.7272 70.9182 91.8859 70.6007 91.8859 70.2126C91.8859 69.8245 92.0447 69.507 92.2387 69.507C92.4327 69.507 92.5915 69.1895 92.5915 68.8015C92.5915 68.4134 92.7502 68.0959 92.9443 68.0959C93.1383 68.0959 93.297 67.4609 93.297 66.6848C93.297 65.9087 93.4558 65.2737 93.6498 65.2737C93.8589 65.2737 94.0026 63.9802 94.0026 62.0987C94.0026 60.2172 93.8589 58.9237 93.6498 58.9237C93.4558 58.9237 93.297 58.2887 93.297 57.5126C93.297 56.7365 93.1383 56.1015 92.9443 56.1015C92.7502 56.1015 92.5915 55.6252 92.5915 55.0432C92.5915 54.4611 92.4327 53.9848 92.2387 53.9848C92.0447 53.9848 91.8859 53.731 91.8859 53.4208C91.8859 53.1106 91.4097 52.4119 90.8276 51.8681C90.2455 51.3244 89.7693 50.6998 89.7693 50.4801C89.7693 49.926 87.4268 47.6348 86.8603 47.6348C86.6056 47.6348 86.1684 47.3173 85.8887 46.9293C85.609 46.5412 85.1328 46.2237 84.8304 46.2237C84.528 46.2237 84.0517 45.9062 83.772 45.5182C83.4923 45.1301 82.9943 44.8126 82.6652 44.8126C82.3362 44.8126 81.9961 44.6142 81.9095 44.3716C81.8229 44.1291 81.632 44.0422 81.4853 44.1784C81.1762 44.4656 82.126 45.5182 82.6942 45.5182C83.2386 45.5182 88.3581 50.7039 88.3581 51.2554C88.3581 51.5068 88.6756 51.9412 89.0637 52.2209C89.478 52.5196 89.7693 53.1342 89.7693 53.7099C89.7693 54.2492 89.928 54.6904 90.122 54.6904C90.3161 54.6904 90.4748 55.1666 90.4748 55.7487C90.4748 56.3308 90.6336 56.807 90.8276 56.807C91.0432 56.807 91.1804 58.4533 91.1804 61.0404C91.1804 63.6274 91.0432 65.2737 90.8276 65.2737C90.6336 65.2737 90.4748 65.75 90.4748 66.332C90.4748 66.9141 90.3161 67.3904 90.122 67.3904C89.928 67.3904 89.7693 67.8316 89.7693 68.3708C89.7693 68.9466 89.478 69.5612 89.0637 69.8598C88.6756 70.1395 88.3581 70.5744 88.3581 70.8262C88.3581 71.4682 83.9013 75.857 83.2494 75.857C82.9548 75.857 82.7137 76.0158 82.7137 76.2098C82.7137 76.4039 82.3962 76.5626 82.0081 76.5626C81.6201 76.5626 81.3026 76.7214 81.3026 76.9154C81.3026 77.1094 80.9851 77.2682 80.597 77.2682C80.209 77.2682 79.8915 77.4269 79.8915 77.6209C79.8915 77.815 79.4152 77.9737 78.8331 77.9737C78.2511 77.9737 77.7748 78.1325 77.7748 78.3265C77.7748 78.5205 77.1398 78.6793 76.3637 78.6793C75.5876 78.6793 74.9526 78.838 74.9526 79.032C74.9526 79.2534 72.7183 79.3848 68.9554 79.3848C65.6569 79.3848 62.9582 79.2941 62.9582 79.1832C62.9582 79.0724 63.2232 78.7166 63.5472 78.3926C63.9755 77.9643 64.176 77.923 64.2821 78.2414C64.4582 78.7696 67.897 78.8505 67.897 78.3264C67.897 78.1305 68.8378 77.9737 70.0137 77.9737C71.1896 77.9737 72.1304 77.8169 72.1304 77.6209C72.1304 77.4269 72.6066 77.2681 73.1887 77.2681C73.7708 77.2681 74.247 77.1093 74.247 76.9153C74.247 76.7213 74.5645 76.5625 74.9526 76.5625C75.3406 76.5625 75.6581 76.4038 75.6581 76.2098C75.6581 76.0157 75.9756 75.857 76.3637 75.857C76.7518 75.857 77.0693 75.6982 77.0693 75.5042C77.0693 75.3102 77.3517 75.1514 77.6969 75.1514C78.0422 75.1514 78.5535 74.8339 78.8331 74.4459C79.1128 74.0578 79.552 73.7403 79.809 73.7403C80.2592 73.7403 82.0081 72.21 82.0081 71.8161C82.0081 71.7103 80.7381 71.6237 79.1859 71.6237H76.3637V59.2764C76.3637 47.1644 76.3503 46.9292 75.6581 46.9292C75.2701 46.9292 74.9526 46.7705 74.9526 46.5764C74.9526 46.3824 74.6351 46.2237 74.247 46.2237C73.859 46.2237 73.5415 46.0649 73.5415 45.8709C73.5415 45.6769 73.0652 45.5181 72.4832 45.5181C71.9011 45.5181 71.4248 45.3593 71.4248 45.1653C71.4248 44.9713 70.7898 44.8125 70.0137 44.8125C69.2376 44.8125 68.6026 44.6538 68.6026 44.4598C68.6026 44.2657 68.4438 44.107 68.2498 44.107C68.0207 44.107 67.897 48.9283 67.897 57.8653V71.6237H57.3137H46.7304V59.7896V47.9555L47.5963 47.0896C48.0725 46.6133 48.7075 46.2237 49.0074 46.2237C49.3073 46.2237 49.5526 46.0649 49.5526 45.8709C49.5526 45.6769 49.8701 45.5181 50.2582 45.5181C50.6462 45.5181 50.9637 45.3593 50.9637 45.1653C50.9637 44.9713 51.2812 44.8125 51.6693 44.8125C52.0573 44.8125 52.3748 44.6538 52.3748 44.4598C52.3748 44.2657 52.8511 44.107 53.4332 44.107C54.0152 44.107 54.4915 43.9482 54.4915 43.7542C54.4915 43.5602 54.9677 43.4014 55.5498 43.4014C56.1319 43.4014 56.6082 43.2427 56.6082 43.0487C56.6082 42.8527 57.5489 42.6959 58.7248 42.6959C59.9007 42.6959 60.8415 42.5391 60.8415 42.3431C60.8415 42.1373 62.0174 41.9903 63.6637 41.9903C65.31 41.9903 66.4859 41.8433 66.4859 41.6376C66.4859 41.4416 65.5452 41.2848 64.3693 41.2848C63.1933 41.2848 62.2526 41.128 62.2526 40.932C62.2526 40.7164 60.6063 40.5792 58.0193 40.5792C55.4322 40.5792 53.7859 40.7164 53.7859 40.932C53.7859 41.128 52.8452 41.2848 51.6693 41.2848C50.4933 41.2848 49.5526 41.4416 49.5526 41.6376C49.5526 41.8316 49.0763 41.9903 48.4943 41.9903C47.9122 41.9903 47.4359 42.1491 47.4359 42.3431C47.4359 42.5371 46.9597 42.6959 46.3776 42.6959C45.7955 42.6959 45.3193 42.8546 45.3193 43.0487C45.3193 43.2427 45.0018 43.4014 44.6137 43.4014C44.2257 43.4014 43.9082 43.5602 43.9082 43.7542C43.9082 43.9482 43.5907 44.107 43.2026 44.107C42.8145 44.107 42.497 44.2657 42.497 44.4598C42.497 44.6538 42.2432 44.8125 41.933 44.8125C41.6228 44.8125 40.9241 45.2888 40.3804 45.8709C39.8366 46.453 39.2131 46.9292 38.9948 46.9292C38.4419 46.9292 35.4415 49.9834 35.4415 50.5462C35.4415 50.7995 35.124 51.2356 34.7359 51.5153C34.3479 51.795 34.0304 52.3063 34.0304 52.6515C34.0304 52.9968 33.8716 53.2792 33.6776 53.2792C33.4836 53.2792 33.3248 53.5967 33.3248 53.9848C33.3248 54.3728 33.1661 54.6903 32.972 54.6903C32.778 54.6903 32.6193 55.0078 32.6193 55.3959C32.6193 55.7839 32.4605 56.1014 32.2665 56.1014C32.0725 56.1014 31.9137 56.4189 31.9137 56.807C31.9137 57.1951 31.755 57.5126 31.5609 57.5126C31.3669 57.5126 31.2082 58.3063 31.2082 59.2764C31.2082 60.2466 31.0494 61.0403 30.8554 61.0403C30.6398 61.0403 30.5026 62.6866 30.5026 65.2737C30.5026 67.8607 30.6398 69.507 30.8554 69.507C31.0494 69.507 31.2082 70.142 31.2082 70.9181C31.2082 71.6942 31.3669 72.3292 31.5609 72.3292C31.755 72.3292 31.9137 72.6467 31.9137 73.0348C31.9137 73.4228 32.0725 73.7403 32.2665 73.7403C32.4605 73.7403 32.6193 74.1815 32.6193 74.7208C32.6193 75.2965 32.9105 75.9111 33.3248 76.2098C33.7129 76.4895 34.0304 76.9657 34.0304 77.2681C34.0304 77.5705 34.3479 78.0467 34.7359 78.3264C35.124 78.6061 35.4415 79.0406 35.4415 79.2919C35.4415 79.8877 40.583 85.0292 41.1787 85.0292C41.4301 85.0292 41.8646 85.3467 42.1443 85.7348C42.424 86.1228 42.9002 86.4403 43.2026 86.4403C43.505 86.4403 43.9812 86.7578 44.2609 87.1459C44.5406 87.5339 45.0519 87.8514 45.3971 87.8514C45.7424 87.8514 46.0248 88.0102 46.0248 88.2042C46.0248 88.3982 46.3423 88.557 46.7304 88.557C47.1184 88.557 47.4359 88.7157 47.4359 88.9098C47.4359 89.1038 47.9122 89.2626 48.4943 89.2626C49.0763 89.2626 49.5526 89.4213 49.5526 89.6153C49.5526 89.8094 49.8701 89.9681 50.2582 89.9681C50.6462 89.9681 50.9637 90.1268 50.9637 90.3209C50.9637 90.5149 51.44 90.6737 52.022 90.6737C52.6041 90.6737 53.0804 90.8324 53.0804 91.0264C53.0804 91.2205 53.7154 91.3792 54.4915 91.3792C55.2676 91.3792 55.9026 91.538 55.9026 91.732C55.9026 91.926 56.6963 92.0848 57.6665 92.0848C58.6366 92.0848 59.4304 92.2435 59.4304 92.4375C59.4304 92.6649 63.1933 92.7903 70.0137 92.7903C76.8341 92.7903 80.597 92.6649 80.597 92.4375C80.597 92.236 81.6554 92.0848 83.0665 92.0848C84.4776 92.0848 85.5359 91.9336 85.5359 91.732C85.5359 91.538 86.3297 91.3792 87.2998 91.3792C88.27 91.3792 89.0637 91.2205 89.0637 91.0264C89.0637 90.8324 89.6987 90.6737 90.4748 90.6737C91.2509 90.6737 91.8859 90.5149 91.8859 90.3209C91.8859 90.1268 92.5209 89.9681 93.297 89.9681C94.0731 89.9681 94.7081 89.8094 94.7081 89.6153C94.7081 89.4213 95.1844 89.2626 95.7665 89.2626C96.3486 89.2626 96.8248 89.1038 96.8248 88.9098C96.8248 88.7157 97.3011 88.557 97.8831 88.557C98.4652 88.557 98.9415 88.3982 98.9415 88.2042C98.9415 88.0102 99.259 87.8514 99.647 87.8514C100.035 87.8514 100.353 87.6927 100.353 87.4987C100.353 87.3046 100.829 87.1459 101.411 87.1459C101.993 87.1459 102.469 86.9871 102.469 86.7931C102.469 86.5991 102.787 86.4403 103.175 86.4403C103.563 86.4403 103.88 86.2816 103.88 86.0876C103.88 85.8935 104.198 85.7348 104.586 85.7348C104.974 85.7348 105.291 85.576 105.291 85.382C105.291 85.188 105.574 85.0292 105.919 85.0292C106.264 85.0292 106.776 84.7117 107.055 84.3237C107.335 83.9356 107.846 83.6181 108.192 83.6181C108.537 83.6181 108.819 83.4593 108.819 83.2653C108.819 83.0713 109.102 82.9126 109.447 82.9126C109.792 82.9126 110.303 82.595 110.583 82.207C110.863 81.8189 111.339 81.5014 111.641 81.5014C111.944 81.5014 112.42 81.1839 112.7 80.7959C112.98 80.4078 113.42 80.0903 113.679 80.0903C113.938 80.0903 115.085 79.1378 116.228 77.9737C117.37 76.8095 118.484 75.857 118.703 75.857C119.218 75.857 120.108 74.9643 120.108 74.4482C120.108 74.2277 120.902 73.2742 121.872 72.3292C122.842 71.3843 123.636 70.3977 123.636 70.1369C123.636 69.8761 123.953 69.4339 124.341 69.1542C124.73 68.8745 125.047 68.3983 125.047 68.0959C125.047 67.7935 125.365 67.3172 125.753 67.0376C126.141 66.7579 126.458 66.2466 126.458 65.9013C126.458 65.5561 126.617 65.2737 126.811 65.2737C127.005 65.2737 127.164 64.9562 127.164 64.5681C127.164 64.18 127.322 63.8625 127.516 63.8625C127.711 63.8625 127.869 63.5451 127.869 63.157C127.869 62.7689 128.028 62.4514 128.222 62.4514C128.416 62.4514 128.575 61.9752 128.575 61.3931C128.575 60.811 128.734 60.3348 128.928 60.3348C129.122 60.3348 129.28 59.8585 129.28 59.2764C129.28 58.6944 129.439 58.2181 129.633 58.2181C129.827 58.2181 129.986 57.5831 129.986 56.807C129.986 56.0309 130.145 55.3959 130.339 55.3959C130.56 55.3959 130.691 53.1616 130.691 49.3987C130.691 45.6357 130.56 43.4014 130.339 43.4014C130.145 43.4014 129.986 42.6077 129.986 41.6376C129.986 40.6674 129.827 39.8737 129.633 39.8737C129.439 39.8737 129.28 39.2387 129.28 38.4626C129.28 37.6864 129.122 37.0514 128.928 37.0514C128.734 37.0514 128.575 36.7339 128.575 36.3459C128.575 35.9578 128.416 35.6403 128.222 35.6403C128.028 35.6403 127.869 35.1641 127.869 34.582C127.869 33.9999 127.711 33.5237 127.516 33.5237C127.322 33.5237 127.164 33.2412 127.164 32.896C127.164 32.5508 126.846 32.0395 126.458 31.7598C126.07 31.4801 125.753 30.9688 125.753 30.6236C125.753 30.2783 125.594 29.9959 125.4 29.9959C125.206 29.9959 125.047 29.7453 125.047 29.4391C125.047 29.1328 124.412 28.2721 123.636 27.5264C122.86 26.7807 122.225 25.9942 122.225 25.7784C122.225 25.2684 119.897 22.9403 119.387 22.9403C119.171 22.9403 118.384 22.3053 117.639 21.5292C116.893 20.7531 116.067 20.1181 115.804 20.1181C115.541 20.1181 115.096 19.8006 114.816 19.4125C114.537 19.0245 114.025 18.707 113.68 18.707C113.335 18.707 113.053 18.5482 113.053 18.3542C113.053 18.1602 112.735 18.0014 112.347 18.0014C111.959 18.0014 111.641 17.8427 111.641 17.6487C111.641 17.4546 111.324 17.2959 110.936 17.2959C110.548 17.2959 110.23 17.1371 110.23 16.9431C110.23 16.7491 109.913 16.5903 109.525 16.5903C109.137 16.5903 108.819 16.4316 108.819 16.2375C108.819 16.0435 108.502 15.8848 108.114 15.8848C107.726 15.8848 107.408 15.726 107.408 15.532C107.408 15.338 106.932 15.1792 106.35 15.1792C105.768 15.1792 105.291 15.0205 105.291 14.8264C105.291 14.6324 104.974 14.4736 104.586 14.4736C104.198 14.4736 103.88 14.3149 103.88 14.1209C103.88 13.9269 103.404 13.7681 102.822 13.7681C102.24 13.7681 101.764 13.6094 101.764 13.4153C101.764 13.2213 101.287 13.0625 100.705 13.0625C100.123 13.0625 99.647 12.9038 99.647 12.7098C99.647 12.5157 99.012 12.357 98.2359 12.357C97.4598 12.357 96.8248 12.1982 96.8248 12.0042C96.8248 11.8102 96.0311 11.6514 95.0609 11.6514C94.0908 11.6514 93.297 11.4927 93.297 11.2987C93.297 11.1027 92.3563 10.9459 91.1804 10.9459C90.0044 10.9459 89.0637 10.7891 89.0637 10.5931C89.0637 10.3873 87.8878 10.2403 86.2415 10.2403C84.5952 10.2403 83.4193 10.0933 83.4193 9.88754C83.4193 9.65948 79.3035 9.53476 71.7776 9.53476C64.2517 9.53476 60.1359 9.65948 60.1359 9.88754C60.1359 10.0891 59.0776 10.2403 57.6665 10.2403C56.2554 10.2403 55.197 10.3915 55.197 10.5931C55.197 10.7891 54.2563 10.9459 53.0804 10.9459C51.9044 10.9459 50.9637 11.1027 50.9637 11.2987C50.9637 11.4927 50.3287 11.6514 49.5526 11.6514C48.7765 11.6514 48.1415 11.8102 48.1415 12.0042C48.1415 12.1982 47.5065 12.357 46.7304 12.357C45.9543 12.357 45.3193 12.5157 45.3193 12.7098C45.3193 12.9038 44.843 13.0625 44.2609 13.0625C43.6788 13.0625 43.2026 13.2213 43.2026 13.4153C43.2026 13.6094 42.7263 13.7681 42.1443 13.7681C41.5622 13.7681 41.0859 13.9269 41.0859 14.1209C41.0859 14.3149 40.6097 14.4736 40.0276 14.4736C39.4455 14.4736 38.9693 14.6324 38.9693 14.8264C38.9693 15.0205 38.493 15.1792 37.9109 15.1792C37.3288 15.1792 36.8526 15.338 36.8526 15.532C36.8526 15.726 36.5351 15.8848 36.147 15.8848C35.759 15.8848 35.4415 16.0435 35.4415 16.2375C35.4415 16.4316 35.124 16.5903 34.7359 16.5903C34.3479 16.5903 34.0304 16.7491 34.0304 16.9431C34.0304 17.1371 33.5541 17.2959 32.972 17.2959C32.39 17.2959 31.9137 17.4546 31.9137 17.6487C31.9137 17.8427 31.5962 18.0014 31.2082 18.0014C30.8201 18.0014 30.5026 18.1602 30.5026 18.3542C30.5026 18.5482 30.2201 18.707 29.8749 18.707C29.5297 18.707 29.0184 19.0245 28.7387 19.4125C28.459 19.8006 27.9477 20.1181 27.6025 20.1181C27.2573 20.1181 26.9748 20.2769 26.9748 20.4709C26.9748 20.6649 26.6924 20.8237 26.3471 20.8237C26.0019 20.8237 25.4906 21.1412 25.2109 21.5292C24.9312 21.9173 24.455 22.2348 24.1526 22.2348C23.8502 22.2348 23.374 22.5523 23.0943 22.9403C22.8146 23.3284 22.367 23.6459 22.0996 23.6459C21.8322 23.6459 21.1686 24.1221 20.6248 24.7042C20.0811 25.2863 19.4597 25.7625 19.244 25.7625C18.7323 25.7625 12.1582 32.3367 12.1582 32.8484C12.1582 33.0641 11.6819 33.6855 11.0998 34.2292C10.5177 34.773 10.0415 35.4366 10.0415 35.704C10.0415 35.9714 9.72398 36.419 9.33593 36.6987C8.94787 36.9784 8.63037 37.4896 8.63037 37.8349C8.63037 38.1801 8.47162 38.4626 8.27759 38.4626C8.08357 38.4626 7.92482 38.7801 7.92482 39.1681C7.92482 39.5562 7.76607 39.8737 7.57204 39.8737C7.37801 39.8737 7.21926 40.1912 7.21926 40.5792C7.21926 40.9673 7.06051 41.2848 6.86648 41.2848C6.67246 41.2848 6.51371 41.761 6.51371 42.3431C6.51371 42.9252 6.35496 43.4014 6.16093 43.4014C5.9669 43.4014 5.80815 43.8777 5.80815 44.4598C5.80815 45.0419 5.6494 45.5181 5.45537 45.5181C5.26134 45.5181 5.10259 46.1531 5.10259 46.9292C5.10259 47.7053 4.94384 48.3403 4.74982 48.3403C4.53031 48.3403 4.39704 50.3394 4.39704 53.632C4.39704 56.9246 4.53031 58.9237 4.74982 58.9237C4.94384 58.9237 5.10259 59.5587 5.10259 60.3348C5.10259 61.1109 5.26134 61.7459 5.45537 61.7459C5.6494 61.7459 5.80815 62.3809 5.80815 63.157C5.80815 63.9331 5.9669 64.5681 6.16093 64.5681C6.35496 64.5681 6.51371 64.8856 6.51371 65.2737C6.51371 65.6617 6.67246 65.9792 6.86648 65.9792C7.06051 65.9792 7.21926 66.2967 7.21926 66.6848C7.21926 67.0728 7.37801 67.3903 7.57204 67.3903C7.76607 67.3903 7.92482 67.7078 7.92482 68.0959C7.92482 68.4839 8.08357 68.8014 8.27759 68.8014C8.47162 68.8014 8.63037 69.1189 8.63037 69.507C8.63037 69.895 8.78912 70.2126 8.98315 70.2126C9.17718 70.2126 9.33593 70.495 9.33593 70.8402C9.33593 71.1854 9.65343 71.6967 10.0415 71.9764C10.4295 72.2561 10.747 72.7037 10.747 72.9711C10.747 73.2385 11.2233 73.9021 11.8054 74.4459C12.3875 74.9896 12.8637 75.6166 12.8637 75.8392C12.8637 76.0617 13.975 77.3398 15.3332 78.6792C16.6913 80.0187 17.8026 81.2016 17.8026 81.308C17.8026 81.4144 17.5626 81.5014 17.2693 81.5014C16.6609 81.5014 9.33593 74.3071 9.33593 73.7096C9.33593 73.4941 8.85968 72.873 8.27759 72.3292C7.69551 71.7855 7.21926 71.1218 7.21926 70.8544C7.21926 70.5871 6.90176 70.1395 6.51371 69.8598C6.12565 69.5801 5.80815 69.0688 5.80815 68.7236C5.80815 68.3783 5.6494 68.0959 5.45537 68.0959C5.26134 68.0959 5.10259 67.7784 5.10259 67.3903C5.10259 67.0023 4.94384 66.6848 4.74982 66.6848C4.55579 66.6848 4.39704 66.3673 4.39704 65.9792C4.39704 65.5912 4.23829 65.2737 4.04426 65.2737C3.85023 65.2737 3.69148 64.9562 3.69148 64.5681C3.69148 64.18 3.53273 63.8625 3.33871 63.8625C3.14468 63.8625 2.98593 63.3863 2.98593 62.8042C2.98593 62.2221 2.82718 61.7459 2.63315 61.7459C2.43912 61.7459 2.28037 61.2696 2.28037 60.6875C2.28037 60.1055 2.12162 59.6292 1.92759 59.6292C1.73357 59.6292 1.57482 58.9942 1.57482 58.2181C1.57482 57.442 1.41607 56.807 1.22204 56.807C0.999234 56.807 0.869263 54.3376 0.869263 50.1042C0.869263 45.8709 0.999234 43.4014 1.22204 43.4014C1.41607 43.4014 1.57482 42.7664 1.57482 41.9903C1.57482 41.2142 1.73357 40.5792 1.92759 40.5792C2.12162 40.5792 2.28037 39.9442 2.28037 39.1681C2.28037 38.392 2.43912 37.757 2.63315 37.757C2.82718 37.757 2.98593 37.4395 2.98593 37.0514C2.98593 36.6634 3.14468 36.3459 3.33871 36.3459C3.53273 36.3459 3.69148 35.8696 3.69148 35.2876C3.69148 34.7055 3.85023 34.2292 4.04426 34.2292C4.23829 34.2292 4.39704 33.9117 4.39704 33.5237C4.39704 33.1356 4.55579 32.8181 4.74982 32.8181C4.94384 32.8181 5.10259 32.5006 5.10259 32.1125C5.10259 31.7245 5.26134 31.407 5.45537 31.407C5.6494 31.407 5.80815 31.1245 5.80815 30.7793C5.80815 30.4341 6.12565 29.9228 6.51371 29.6431C6.90176 29.3634 7.21926 28.8872 7.21926 28.5848C7.21926 28.2824 7.53676 27.8061 7.92482 27.5264C8.31287 27.2467 8.63037 26.8024 8.63037 26.5389C8.63037 26.2755 9.26537 25.4499 10.0415 24.7042C10.8176 23.9585 11.4526 23.1743 11.4526 22.9614C11.4526 22.4597 15.9066 18.0014 16.4079 18.0014C16.6181 18.0014 17.5632 17.2077 18.5082 16.2375C19.4531 15.2674 20.4396 14.4736 20.7004 14.4736C20.9612 14.4736 21.4035 14.1561 21.6832 13.7681C21.9628 13.38 22.4391 13.0625 22.7415 13.0625C23.0439 13.0625 23.5201 12.745 23.7998 12.357C24.0795 11.9689 24.5908 11.6514 24.936 11.6514C25.2813 11.6514 25.5637 11.4927 25.5637 11.2987C25.5637 11.1046 25.8462 10.9459 26.1914 10.9459C26.5366 10.9459 27.0479 10.6284 27.3276 10.2403C27.6073 9.85226 28.1186 9.53476 28.4638 9.53476C28.809 9.53476 29.0915 9.37601 29.0915 9.18199C29.0915 8.98796 29.409 8.82921 29.797 8.82921C30.1851 8.82921 30.5026 8.67046 30.5026 8.47643C30.5026 8.2824 30.8201 8.12365 31.2082 8.12365C31.5962 8.12365 31.9137 7.9649 31.9137 7.77087C31.9137 7.57685 32.39 7.41811 32.972 7.41811C33.5541 7.41811 34.0304 7.25935 34.0304 7.06532C34.0304 6.87129 34.3479 6.71255 34.7359 6.71255C35.124 6.71255 35.4415 6.55379 35.4415 6.35976C35.4415 6.16574 35.9177 6.007 36.4998 6.007C37.0819 6.007 37.5582 5.84824 37.5582 5.65421C37.5582 5.46018 37.8757 5.30144 38.2637 5.30144C38.6518 5.30144 38.9693 5.14268 38.9693 4.94865C38.9693 4.75463 39.4455 4.59589 40.0276 4.59589C40.6097 4.59589 41.0859 4.43713 41.0859 4.2431C41.0859 4.04907 41.7209 3.89033 42.497 3.89033C43.2732 3.89033 43.9082 3.73157 43.9082 3.53754C43.9082 3.34351 44.5432 3.18476 45.3193 3.18476C46.0954 3.18476 46.7304 3.02601 46.7304 2.83199C46.7304 2.63796 47.3654 2.47921 48.1415 2.47921C48.9176 2.47921 49.5526 2.32046 49.5526 2.12643C49.5526 1.93045 50.4933 1.77366 51.6693 1.77366C52.8452 1.77366 53.7859 1.61687 53.7859 1.42088C53.7859 1.20708 55.3146 1.0681 57.6665 1.0681C60.0183 1.0681 61.547 0.929129 61.547 0.715324C61.547 0.501519 63.0757 0.362549 65.4276 0.362549C67.7794 0.362549 69.3082 0.501519 69.3082 0.715324C69.3082 0.92699 70.7193 1.0681 72.8359 1.0681C74.9526 1.0681 76.3637 1.20922 76.3637 1.42088C76.3637 1.61687 77.3044 1.77366 78.4804 1.77366C79.6563 1.77366 80.597 1.93045 80.597 2.12643C80.597 2.32046 81.3908 2.47921 82.3609 2.47921C83.3311 2.47921 84.1248 2.63796 84.1248 2.83199C84.1248 3.02601 84.7598 3.18476 85.5359 3.18476C86.312 3.18476 86.947 3.34351 86.947 3.53754C86.947 3.73157 87.582 3.89033 88.3581 3.89033C89.1343 3.89033 89.7693 4.04907 89.7693 4.2431C89.7693 4.43713 90.2455 4.59589 90.8276 4.59589C91.4097 4.59589 91.8859 4.75463 91.8859 4.94865C91.8859 5.14268 92.5209 5.30144 93.297 5.30144C94.0731 5.30144 94.7081 5.46018 94.7081 5.65421C94.7081 5.84824 95.0256 6.007 95.4137 6.007C95.8018 6.007 96.1193 6.16574 96.1193 6.35976C96.1193 6.55379 96.5955 6.71255 97.1776 6.71255C97.7597 6.71255 98.2359 6.87129 98.2359 7.06532C98.2359 7.25935 98.7122 7.41811 99.2943 7.41811C99.8763 7.41811 100.353 7.57685 100.353 7.77087C100.353 7.9649 100.67 8.12365 101.058 8.12365C101.446 8.12365 101.764 8.2824 101.764 8.47643C101.764 8.67046 102.081 8.82921 102.469 8.82921C102.857 8.82921 103.175 8.98796 103.175 9.18199C103.175 9.37601 103.651 9.53476 104.233 9.53476C104.815 9.53476 105.291 9.69351 105.291 9.88754C105.291 10.0816 105.609 10.2403 105.997 10.2403C106.385 10.2403 106.703 10.3991 106.703 10.5931C106.703 10.7871 107.02 10.9459 107.408 10.9459C107.796 10.9459 108.114 11.1046 108.114 11.2987C108.114 11.4927 108.396 11.6514 108.741 11.6514C109.087 11.6514 109.598 11.9689 109.878 12.357C110.157 12.745 110.669 13.0625 111.014 13.0625C111.359 13.0625 111.641 13.2213 111.641 13.4153C111.641 13.6094 111.924 13.7681 112.269 13.7681C112.614 13.7681 113.126 14.0856 113.405 14.4736C113.685 14.8617 114.161 15.1792 114.464 15.1792C114.766 15.1792 115.242 15.4967 115.522 15.8848C115.802 16.2728 116.278 16.5903 116.58 16.5903C116.883 16.5903 117.359 16.9078 117.639 17.2959C117.918 17.6839 118.366 18.0014 118.633 18.0014C118.901 18.0014 119.564 18.4777 120.108 19.0598C120.652 19.6419 121.273 20.1181 121.488 20.1181C121.998 20.1181 131.397 29.5172 131.397 30.0275C131.397 30.2425 131.873 30.8633 132.455 31.407C133.037 31.9507 133.514 32.6494 133.514 32.9596C133.514 33.2699 133.672 33.5237 133.866 33.5237C134.061 33.5237 134.219 33.8061 134.219 34.1513C134.219 34.4966 134.537 35.0079 134.925 35.2876C135.313 35.5673 135.63 36.0785 135.63 36.4238C135.63 36.769 135.789 37.0514 135.983 37.0514C136.177 37.0514 136.336 37.3689 136.336 37.757C136.336 38.145 136.495 38.4626 136.689 38.4626C136.883 38.4626 137.041 38.9388 137.041 39.5209C137.041 40.103 137.2 40.5792 137.394 40.5792C137.588 40.5792 137.747 40.8967 137.747 41.2848C137.747 41.6728 137.906 41.9903 138.1 41.9903C138.294 41.9903 138.453 42.6253 138.453 43.4014C138.453 44.1776 138.611 44.8125 138.805 44.8125C138.999 44.8125 139.158 45.4476 139.158 46.2237C139.158 46.9998 139.317 47.6348 139.511 47.6348C139.731 47.6348 139.864 49.7514 139.864 53.2792C139.864 56.807 139.731 58.9237 139.511 58.9237C139.317 58.9237 139.158 59.5587 139.158 60.3348C139.158 61.1109 138.999 61.7459 138.805 61.7459C138.611 61.7459 138.453 62.3809 138.453 63.157C138.453 63.9331 138.294 64.5681 138.1 64.5681C137.906 64.5681 137.747 64.8856 137.747 65.2737C137.747 65.6617 137.588 65.9792 137.394 65.9792C137.2 65.9792 137.041 66.4204 137.041 66.9597C137.041 67.5354 136.75 68.15 136.336 68.4487C135.948 68.7283 135.63 69.2396 135.63 69.5849C135.63 69.9301 135.472 70.2126 135.278 70.2126C135.084 70.2126 134.925 70.495 134.925 70.8402C134.925 71.1854 134.607 71.6967 134.219 71.9764C133.831 72.2561 133.514 72.6984 133.514 72.9592C133.514 73.22 132.72 74.2065 131.75 75.1514C130.78 76.0964 129.986 77.0499 129.986 77.2704C129.986 77.7865 129.095 78.6792 128.58 78.6792C128.362 78.6792 127.248 79.6317 126.105 80.7959C124.963 81.9601 123.816 82.9126 123.557 82.9126C123.298 82.9126 122.857 83.2301 122.578 83.6181C122.298 84.0062 121.822 84.3237 121.519 84.3237C121.217 84.3237 120.741 84.6412 120.461 85.0292C120.181 85.4173 119.67 85.7348 119.325 85.7348C118.979 85.7348 118.697 85.8935 118.697 86.0876C118.697 86.2816 118.415 86.4403 118.069 86.4403C117.724 86.4403 117.213 86.7578 116.933 87.1459C116.653 87.5339 116.142 87.8514 115.797 87.8514C115.452 87.8514 115.169 88.0102 115.169 88.2042C115.169 88.3982 114.852 88.557 114.464 88.557C114.076 88.557 113.758 88.7157 113.758 88.9098C113.758 89.1038 113.282 89.2626 112.7 89.2626C112.118 89.2626 111.641 89.4213 111.641 89.6153C111.641 89.8094 111.324 89.9681 110.936 89.9681C110.548 89.9681 110.23 90.1268 110.23 90.3209C110.23 90.5149 109.754 90.6737 109.172 90.6737C108.59 90.6737 108.114 90.8324 108.114 91.0264C108.114 91.2205 107.796 91.3792 107.408 91.3792C107.02 91.3792 106.703 91.538 106.703 91.732C106.703 91.926 106.226 92.0848 105.644 92.0848C105.062 92.0848 104.586 92.2435 104.586 92.4375C104.586 92.6316 103.951 92.7903 103.175 92.7903C102.399 92.7903 101.764 92.9491 101.764 93.1431C101.764 93.3371 101.287 93.4959 100.705 93.4959C100.123 93.4959 99.647 93.6546 99.647 93.8487C99.647 94.0427 99.012 94.2014 98.2359 94.2014C97.4598 94.2014 96.8248 94.3602 96.8248 94.5542C96.8248 94.7482 96.0311 94.907 95.0609 94.907C94.0908 94.907 93.297 95.0657 93.297 95.2598C93.297 95.4558 92.3563 95.6125 91.1804 95.6125C90.0044 95.6125 89.0637 95.7693 89.0637 95.9653C89.0637 96.1744 87.7702 96.3181 85.8887 96.3181C84.0072 96.3181 82.7137 96.4618 82.7137 96.6709C82.7137 96.8958 79.7739 97.0237 74.5998 97.0237C69.4257 97.0237 66.4859 96.8958 66.4859 96.6709V96.6709ZM131.838 95.0692C130.802 93.9846 130.691 93.662 130.691 91.726C130.691 89.9214 130.828 89.4467 131.557 88.7174C132.034 88.2412 132.669 87.8515 132.969 87.8515C133.268 87.8515 133.514 87.6927 133.514 87.4987C133.514 87.3047 134.307 87.1459 135.278 87.1459C136.248 87.1459 137.041 87.3047 137.041 87.4987C137.041 87.6927 137.291 87.8515 137.596 87.8515C137.901 87.8515 138.377 88.0783 138.654 88.3555C138.931 88.6326 139.158 89.1089 139.158 89.4138C139.158 89.7187 139.317 89.9682 139.511 89.9682C139.705 89.9682 139.864 90.8466 139.864 91.9202C139.864 93.6771 139.741 93.9944 138.641 95.0952C137.497 96.239 137.274 96.3166 135.201 96.2939C133.154 96.2715 132.897 96.1779 131.838 95.0692V95.0692ZM136.336 94.5543C136.336 93.9722 136.177 93.4959 135.983 93.4959C135.789 93.4959 135.63 93.1784 135.63 92.7904C135.63 92.32 135.395 92.0848 134.925 92.0848C134.313 92.0848 134.219 92.32 134.219 93.8487C134.219 95.5734 134.243 95.6126 135.278 95.6126C136.218 95.6126 136.336 95.495 136.336 94.5543V94.5543ZM133.514 91.732C133.514 89.9858 133.423 88.557 133.312 88.557C132.898 88.557 132.103 89.5847 132.103 90.1193C132.103 90.4242 131.944 90.6737 131.75 90.6737C131.556 90.6737 131.397 91.15 131.397 91.732C131.397 92.3141 131.556 92.7904 131.75 92.7904C131.944 92.7904 132.103 93.0352 132.103 93.3344C132.103 93.9128 132.807 94.8712 133.249 94.8936C133.395 94.9006 133.514 93.4783 133.514 91.732V91.732ZM137.949 94.4031C138.226 94.1259 138.453 93.6496 138.453 93.3447C138.453 93.0398 138.611 92.7904 138.805 92.7904C138.999 92.7904 139.158 92.3141 139.158 91.732C139.158 91.15 138.999 90.6737 138.805 90.6737C138.611 90.6737 138.453 90.4242 138.453 90.1193C138.453 89.2951 137.562 88.557 136.567 88.557C136.084 88.557 135.618 88.3586 135.532 88.1161C135.445 87.8735 135.254 87.7866 135.107 87.9229C134.751 88.2544 135.789 89.2626 136.487 89.2626C136.945 89.2626 137.041 89.7544 137.041 92.0848C137.041 93.637 137.132 94.907 137.243 94.907C137.354 94.907 137.671 94.6803 137.949 94.4031V94.4031ZM135.63 90.6737C135.63 90.2033 135.395 89.9682 134.925 89.9682C134.454 89.9682 134.219 90.2033 134.219 90.6737C134.219 91.1441 134.454 91.3793 134.925 91.3793C135.395 91.3793 135.63 91.1441 135.63 90.6737Z" fill="black"/>
</svg>
